{"title":"Someone.You.Love.2014.DVDRip.x264.HORiZON-ArtSubs","uid":11364548,"size":1869193281,"categoryP":"video","categoryS":"movies","magnet":"?xt=urn:btih:78496e566074d1ab8847375bb7a38e72e10f1151&amp;dn=Someone.You.Love.2014.DVDRip.x264.HORiZON-ArtSubs&amp;tr=udp%3A%2F%2Ftracker.openbittorrent.com%3A80&amp;tr=udp%3A%2F%2Fopen.demonii.com%3A1337&amp;tr=udp%3A%2F%2Ftracker.coppersurfer.tk%3A6969&amp;tr=udp%3A%2F%2Fexodus.desync.com%3A6969","seeders":11,"leechers":1,"uploader":"lletaif","files":-1,"time":1415029886,"description":"Title:\nSomeone You Love Aka En Du Elsker\n\n\n\nCountry:\nDenmark\nSubtitle:\nEnglish, Danish, Swedish\n\n\nDirector:\nPernille Fischer Christensen\n\n\nPlot:\nWorld famous singer-songwriter Thomas Jacob is based in Los Angeles. He is a very successful man who has burned a lot of bridges. He lives and breathes music and very little else. When Thomas travels back to Denmark to record a new album with his regular producer, Molly Moe, his grown-up daughter, Julie, shows up with his 11 year-old grandson, Noa, whom Thomas has never met. Soon - and much against his will - Thomas is forced to take care of Noa. Against all odds the two of them slowly begin to connect through music. Then disaster strikes forcing Thomas to realize, that he now has to make a choice that will change his life forever. \n\n\nTrivia:\nOfficial Selection Berlin Film Festival 2014\n\n\n\nMedia Info:\n\nGeneral\nUnique ID                                : 87883886005348912837250870526116444312 (0x421DD21DE574F85A782C3E9459BD3898)\nComplete name                            : Someone.You.Love.2014.DVDRip.x264.HORiZON-ArtSubs.mkv\nFormat                                   : Matroska\nFormat version                           : Version 2\nFile size                                : 1.74 GiB\nDuration                                 : 1h 31mn\nOverall bit rate                         : 2 725 Kbps\nWriting application                      : HandBrake 0.9.5\nWriting library                          : libmkv 0.6.4.1\n\nVideo\nID                                       : 1\nFormat                                   : AVC\nFormat/Info                              : Advanced Video Codec\nFormat profile                           : &lt;a class=&quot;__cf_email__&quot; href=&quot;/cdn-cgi/l/email-protection&quot; data-cfemail=&quot;743c1d131c3438475a44&quot;&gt;[email&amp;#160;protected]&lt;/a&gt;&lt;script cf-hash='f9e31' type=&quot;text/javascript&quot;&gt;\n/* &lt;![CDATA[ */!function(){try{var t=&quot;currentScript&quot;in document?document.currentScript:function(){for(var t=document.getElementsByTagName(&quot;script&quot;),e=t.length;e--;)if(t[e].getAttribute(&quot;cf-hash&quot;))return t[e]}();if(t&amp;&amp;t.previousSibling){var e,r,n,i,c=t.previousSibling,a=c.getAttribute(&quot;data-cfemail&quot;);if(a){for(e=&quot;&quot;,r=parseInt(a.substr(0,2),16),n=2;a.length-n;n+=2)i=parseInt(a.substr(n,2),16)^r,e+=String.fromCharCode(i);e=document.createTextNode(e),c.parentNode.replaceChild(e,c)}}}catch(u){}}();/* ]]&gt; */&lt;/script&gt;\nFormat settings, CABAC                   : Yes\nFormat settings, ReFrames                : 4 frames\nCodec ID                                 : V_MPEG4/ISO/AVC\nDuration                                 : 1h 31mn\nBit rate                                 : 2 364 Kbps\nWidth                                    : 720 pixels\nHeight                                   : 432 pixels\nDisplay aspect ratio                     : 2.35:1\nOriginal display aspect ratio            : 2.35:1\nFrame rate mode                          : Constant\nFrame rate                               : 25.000 fps\nColor space                              : YUV\nChroma subsampling                       : 4:2:0\nBit depth                                : 8 bits\nScan type                                : Progressive\nBits/(Pixel*Frame)                       : 0.304\nStream size                              : 1.46 GiB (84%)\nWriting library                          : x264 core 112\nEncoding settings                        : cabac=1 / ref=3 / deblock=1:0:0 / analyse=0x3:0x113 / me=hex / subme=7 / psy=1 / psy_rd=1.00:0.00 / mixed_ref=1 / me_range=16 / chroma_me=1 / trellis=1 / 8x8dct=1 / cqm=0 / deadzone=21,11 / fast_pskip=1 / chroma_qp_offset=-2 / threads=6 / sliced_threads=0 / nr=0 / decimate=1 / interlaced=0 / constrained_intra=0 / bframes=3 / b_pyramid=2 / b_adapt=2 / b_bias=0 / direct=1 / weightb=1 / open_gop=0 / weightp=2 / keyint=250 / keyint_min=25 / scenecut=40 / intra_refresh=0 / rc_lookahead=50 / rc=abr / mbtree=1 / bitrate=2364 / ratetol=1.0 / qcomp=0.60 / qpmin=3 / qpmax=51 / qpstep=4 / ip_ratio=1.40 / aq=1:1.00\nLanguage                                 : English\nDefault                                  : Yes\nForced                                   : No\nColor primaries                          : BT.601 NTSC\nTransfer characteristics                 : BT.709\nMatrix coefficients                      : BT.601\n\nAudio\nID                                       : 2\nFormat                                   : AC-3\nFormat/Info                              : Audio Coding 3\nMode extension                           : CM (complete main)\nFormat settings, Endianness              : Big\nCodec ID                                 : A_AC3\nDuration                                 : 1h 31mn\nBit rate mode                            : Constant\nBit rate                                 : 384 Kbps\nChannel(s)                               : 2 channels\nChannel positions                        : Front: L R\nSampling rate                            : 48.0 KHz\nBit depth                                : 16 bits\nCompression mode                         : Lossy\nStream size                              : 251 MiB (14%)\nLanguage                                 : Danish\nDefault                                  : Yes\nForced                                   : No\n\nText #1\nID                                       : 3\nFormat                                   : VobSub\nCodec ID                                 : S_VOBSUB\nCodec ID/Info                            : The same subtitle format used on DVDs\nLanguage                                 : English\nDefault                                  : No\nForced                                   : No\n\nText #2\nID                                       : 4\nFormat                                   : VobSub\nCodec ID                                 : S_VOBSUB\nCodec ID/Info                            : The same subtitle format used on DVDs\nLanguage                                 : Danish\nDefault                                  : No\nForced                                   : No\n\nText #3\nID                                       : 5\nFormat                                   : VobSub\nCodec ID                                 : S_VOBSUB\nCodec ID/Info                            : The same subtitle format used on DVDs\nLanguage                                 : Danish\nDefault                                  : No\nForced                                   : No\n\nText #4\nID                                       : 6\nFormat                                   : VobSub\nCodec ID                                 : S_VOBSUB\nCodec ID/Info                            : The same subtitle format used on DVDs\nLanguage                                 : Swedish\nDefault                                  : No\nForced                                   : No\n\nText #5\nID                                       : 7\nFormat                                   : VobSub\nCodec ID                                 : S_VOBSUB\nCodec ID/Info                            : The same subtitle format used on DVDs\nLanguage                                 : Swedish\nDefault                                  : No\nForced                                   : No\n\nMenu\n00:00:00.000                             : Chapter 1\n00:09:41.280                             : Chapter 2\n00:20:38.400                             : Chapter 3\n00:30:28.320                             : Chapter 4\n00:40:38.400                             : Chapter 5\n00:50:03.360                             : Chapter 6\n00:59:46.080                             : Chapter 7\n01:09:26.880                             : Chapter 8\n01:18:50.400                             : Chapter 9\n01:26:38.880                             : Chapter 10\n01:31:27.120                             : Chapter 11","torrent":{"xt":"urn:btih:78496e566074d1ab8847375bb7a38e72e10f1151","amp;dn":"Someone.You.Love.2014.DVDRip.x264.HORiZON-ArtSubs","amp;tr":["udp%3A%2F%2Ftracker.openbittorrent.com%3A80","udp%3A%2F%2Fopen.demonii.com%3A1337","udp%3A%2F%2Ftracker.coppersurfer.tk%3A6969","udp%3A%2F%2Fexodus.desync.com%3A6969"],"infoHash":"78496e566074d1ab8847375bb7a38e72e10f1151","infoHashBuffer":{"type":"Buffer","data":[120,73,110,86,96,116,209,171,136,71,55,91,183,163,142,114,225,15,17,81]},"announce":[],"urlList":[]}}